# xmcd
#
# Track frame offsets: 
#        150
#        11457
#        21757
#        34245
#        46068
#        58281
#        70639
#        82234
#        93337
#        104892
#        116532
#        126913
#        139062
#        150279
#        161679
#        173791
#        183495
#        196300
#        203980
#
# Disc length: 2884 seconds
#
# Revision: 3
# Processed by: cddbd v1.5.2PL0 Copyright (c) Steve Scherf et al.
# Submitted via: ExactAudioCopy v1.1
#
DISCID=070b4213
DTITLE=Syl Johnson - Syl Johnson:  Complete Mythology (Numero) - Disc 
DTITLE=1
DYEAR=2016
DGENRE=R&B
TTITLE0=Teardrops
TTITLE1=They Who Love
TTITLE2=I've Got Love
TTITLE3=Lonely Man
TTITLE4=I Need Love
TTITLE5=His Gift
TTITLE6=I've Got To Find My Baby
TTITLE7=(She's So Fine) I Just Gotta Make Her Mine
TTITLE8=Little Sally Walker
TTITLE9=I Resign From Your Love
TTITLE10=I Wanna Know
TTITLE11=Well Oh Well
TTITLE12=Please, Please, Please
TTITLE13=I'm Looking For My Baby
TTITLE14=She's Alright
TTITLE15=I Know
TTITLE16=A Half Love
TTITLE17=I've Been Talked About
TTITLE18=This Heart Of Mine
EXTD=
EXTT0=
EXTT1=
EXTT2=
EXTT3=
EXTT4=
EXTT5=
EXTT6=
EXTT7=
EXTT8=
EXTT9=
EXTT10=
EXTT11=
EXTT12=
EXTT13=
EXTT14=
EXTT15=
EXTT16=
EXTT17=
EXTT18=
PLAYORDER=
